<svg width="21" height="21" viewBox="0 0 21 21" fill="none" xmlns="http://www.w3.org/2000/svg">
<path d="M19.8211 10.5086C19.7937 10.4469 19.132 8.97891 17.6609 7.50781C15.7008 5.54766 13.225 4.51172 10.5 4.51172C7.77499 4.51172 5.29921 5.54766 3.33905 7.50781C1.86796 8.97891 1.20312 10.4492 1.1789 10.5086C1.14336 10.5885 1.125 10.675 1.125 10.7625C1.125 10.85 1.14336 10.9365 1.1789 11.0164C1.20624 11.0781 1.86796 12.5453 3.33905 14.0164C5.29921 15.9758 7.77499 17.0117 10.5 17.0117C13.225 17.0117 15.7008 15.9758 17.6609 14.0164C19.132 12.5453 19.7937 11.0781 19.8211 11.0164C19.8566 10.9365 19.875 10.85 19.875 10.7625C19.875 10.675 19.8566 10.5885 19.8211 10.5086ZM10.5 15.7617C8.0953 15.7617 5.99452 14.8875 4.25546 13.1641C3.5419 12.4544 2.93483 11.6453 2.45312 10.7617C2.9347 9.87808 3.54179 9.06889 4.25546 8.35938C5.99452 6.63594 8.0953 5.76172 10.5 5.76172C12.9047 5.76172 15.0055 6.63594 16.7445 8.35938C17.4595 9.06872 18.0679 9.8779 18.5508 10.7617C17.9875 11.8133 15.5336 15.7617 10.5 15.7617ZM10.5 7.01172C9.75831 7.01172 9.03329 7.23165 8.4166 7.64371C7.79992 8.05576 7.31927 8.64143 7.03544 9.32666C6.75162 10.0119 6.67735 10.7659 6.82205 11.4933C6.96674 12.2207 7.32389 12.8889 7.84834 13.4134C8.37279 13.9378 9.04097 14.295 9.7684 14.4397C10.4958 14.5844 11.2498 14.5101 11.9351 14.2263C12.6203 13.9424 13.2059 13.4618 13.618 12.8451C14.0301 12.2284 14.25 11.5034 14.25 10.7617C14.249 9.76747 13.8535 8.81425 13.1505 8.11121C12.4475 7.40817 11.4942 7.01275 10.5 7.01172ZM10.5 13.2617C10.0055 13.2617 9.52219 13.1151 9.11107 12.8404C8.69994 12.5657 8.37951 12.1752 8.19029 11.7184C8.00107 11.2616 7.95157 10.7589 8.04803 10.274C8.14449 9.78904 8.38259 9.34358 8.73222 8.99395C9.08186 8.64432 9.52731 8.40622 10.0123 8.30976C10.4972 8.21329 10.9999 8.2628 11.4567 8.45202C11.9135 8.64124 12.304 8.96167 12.5787 9.37279C12.8534 9.78392 13 10.2673 13 10.7617C13 11.4248 12.7366 12.0606 12.2678 12.5295C11.7989 12.9983 11.163 13.2617 10.5 13.2617Z" fill="#525866"/>
</svg>
