<svg width="21" height="21" viewBox="0 0 21 21" fill="none" xmlns="http://www.w3.org/2000/svg">
<path d="M3.21562 4.04226C3.14839 4.10054 3.09437 4.17251 3.05718 4.25335C3.02 4.33419 3.0005 4.42203 3 4.51101V17.636C3 17.8018 3.06585 17.9607 3.18306 18.078C3.30027 18.1952 3.45924 18.261 3.625 18.261C3.79076 18.261 3.94973 18.1952 4.06694 18.078C4.18415 17.9607 4.25 17.8018 4.25 17.636V14.1805C6.34297 12.5274 8.14609 13.4188 10.2227 14.4469C11.5039 15.0805 12.8836 15.7634 14.3633 15.7634C15.4516 15.7634 16.593 15.3923 17.7867 14.3571C17.854 14.2988 17.908 14.2269 17.9452 14.146C17.9823 14.0652 18.0018 13.9773 18.0023 13.8884V4.51101C18.0021 4.39105 17.9673 4.2737 17.9021 4.17298C17.8369 4.07226 17.7442 3.99242 17.6348 3.94299C17.5255 3.89357 17.4043 3.87665 17.2856 3.89425C17.167 3.91185 17.0559 3.96323 16.9656 4.04226C14.7781 5.93523 12.925 5.01804 10.7773 3.95476C8.55234 2.85164 6.02969 1.60398 3.21562 4.04226ZM16.75 13.593C14.657 15.2462 12.8539 14.354 10.7773 13.3266C8.82422 12.3618 6.65156 11.2852 4.25 12.6704V4.80711C6.34297 3.15398 8.14609 4.04539 10.2227 5.07273C12.1758 6.03757 14.3492 7.11414 16.75 5.72898V13.593Z" fill="#525866"/>
</svg>
