<svg width="21" height="21" viewBox="0 0 21 21" fill="none" xmlns="http://www.w3.org/2000/svg">
<path d="M17.375 6.38586H14.6344C14.6648 6.36007 14.6961 6.33507 14.7258 6.30773C14.9631 6.09693 15.1543 5.83944 15.2875 5.55137C15.4207 5.26329 15.4931 4.95082 15.5 4.63351C15.5103 4.28638 15.4495 3.94082 15.3213 3.61803C15.1932 3.29525 15.0005 3.00206 14.755 2.75645C14.5094 2.51085 14.2163 2.31803 13.8936 2.18981C13.5708 2.06159 13.2253 2.0007 12.8781 2.01086C12.5607 2.01769 12.2481 2.08999 11.9598 2.22321C11.6716 2.35643 11.414 2.54771 11.2031 2.78508C10.9113 3.12327 10.6741 3.50495 10.5 3.91633C10.3259 3.50495 10.0887 3.12327 9.79688 2.78508C9.58599 2.54771 9.32837 2.35643 9.04015 2.22321C8.75193 2.08999 8.43932 2.01769 8.12187 2.01086C7.77474 2.0007 7.4292 2.06159 7.10645 2.18981C6.7837 2.31803 6.49057 2.51085 6.24504 2.75645C5.99951 3.00206 5.80677 3.29525 5.67865 3.61803C5.55053 3.94082 5.48974 4.28638 5.5 4.63351C5.50694 4.95082 5.57929 5.26329 5.7125 5.55137C5.84572 5.83944 6.03695 6.09693 6.27422 6.30773C6.30391 6.33351 6.33516 6.35851 6.36563 6.38586H3.625C3.29348 6.38586 2.97554 6.51755 2.74112 6.75197C2.5067 6.98639 2.375 7.30434 2.375 7.63586V10.1359C2.375 10.4674 2.5067 10.7853 2.74112 11.0197C2.97554 11.2542 3.29348 11.3859 3.625 11.3859V16.3859C3.625 16.7174 3.7567 17.0353 3.99112 17.2697C4.22554 17.5042 4.54348 17.6359 4.875 17.6359H16.125C16.4565 17.6359 16.7745 17.5042 17.0089 17.2697C17.2433 17.0353 17.375 16.7174 17.375 16.3859V11.3859C17.7065 11.3859 18.0245 11.2542 18.2589 11.0197C18.4933 10.7853 18.625 10.4674 18.625 10.1359V7.63586C18.625 7.30434 18.4933 6.98639 18.2589 6.75197C18.0245 6.51755 17.7065 6.38586 17.375 6.38586ZM12.1406 3.6132C12.2396 3.50392 12.3601 3.41628 12.4945 3.35578C12.629 3.29528 12.7745 3.26323 12.9219 3.26164H12.9602C13.1329 3.26272 13.3038 3.29827 13.4626 3.36622C13.6215 3.43417 13.7652 3.53315 13.8854 3.65735C14.0055 3.78155 14.0996 3.92848 14.1622 4.08953C14.2248 4.25058 14.2547 4.4225 14.25 4.59523C14.2484 4.74265 14.2164 4.88815 14.1559 5.02259C14.0954 5.15704 14.0077 5.27752 13.8984 5.37648C13.157 6.03273 11.9266 6.26398 11.1641 6.34523C11.2578 5.51789 11.5156 4.31554 12.1406 3.6132ZM7.13359 3.64132C7.37574 3.39921 7.70367 3.26247 8.04609 3.26086H8.08438C8.2318 3.26245 8.37729 3.2945 8.51174 3.355C8.64618 3.4155 8.76667 3.50314 8.86563 3.61242C9.52109 4.35304 9.75234 5.58117 9.83359 6.34054C9.07422 6.26242 7.84609 6.02804 7.10547 5.37258C6.99619 5.27362 6.90855 5.15313 6.84805 5.01869C6.78755 4.88425 6.7555 4.73875 6.75391 4.59133C6.74906 4.41573 6.77994 4.24098 6.84467 4.07767C6.9094 3.91437 7.00663 3.76592 7.13047 3.64132H7.13359ZM3.625 7.63586H9.875V10.1359H3.625V7.63586ZM4.875 11.3859H9.875V16.3859H4.875V11.3859ZM16.125 16.3859H11.125V11.3859H16.125V16.3859ZM17.375 10.1359H11.125V7.63586H17.375V10.1359Z" fill="#525866"/>
</svg>
