<svg width="17" height="17" viewBox="0 0 17 17" fill="none" xmlns="http://www.w3.org/2000/svg">
<path d="M8.5 4.76172C8.00555 4.76172 7.5222 4.90834 7.11107 5.18304C6.69995 5.45775 6.37952 5.8482 6.1903 6.30501C6.00108 6.76183 5.95157 7.26449 6.04804 7.74944C6.1445 8.2344 6.3826 8.67985 6.73223 9.02949C7.08186 9.37912 7.52732 9.61722 8.01227 9.71368C8.49723 9.81015 8.99989 9.76064 9.45671 9.57142C9.91352 9.3822 10.304 9.06177 10.5787 8.65064C10.8534 8.23952 11 7.75617 11 7.26172C11 6.59868 10.7366 5.96279 10.2678 5.49395C9.79893 5.02511 9.16304 4.76172 8.5 4.76172ZM8.5 8.76172C8.20333 8.76172 7.91332 8.67375 7.66664 8.50892C7.41997 8.3441 7.22771 8.10983 7.11418 7.83574C7.00065 7.56165 6.97094 7.26005 7.02882 6.96908C7.0867 6.67811 7.22956 6.41084 7.43934 6.20106C7.64912 5.99128 7.91639 5.84842 8.20736 5.79054C8.49834 5.73266 8.79994 5.76237 9.07403 5.8759C9.34811 5.98943 9.58238 6.18169 9.7472 6.42836C9.91203 6.67504 10 6.96505 10 7.26172C10 7.65954 9.84196 8.04107 9.56066 8.32238C9.27936 8.60368 8.89782 8.76172 8.5 8.76172ZM8.5 1.76172C7.04182 1.76337 5.64383 2.34337 4.61274 3.37446C3.58165 4.40555 3.00165 5.80354 3 7.26172C3 9.22422 3.90688 11.3042 5.625 13.2773C6.39701 14.1689 7.26591 14.9718 8.21562 15.6711C8.2997 15.73 8.39985 15.7616 8.5025 15.7616C8.60515 15.7616 8.70531 15.73 8.78938 15.6711C9.73734 14.9715 10.6046 14.1687 11.375 13.2773C13.0906 11.3042 14 9.22422 14 7.26172C13.9983 5.80354 13.4184 4.40555 12.3873 3.37446C11.3562 2.34337 9.95818 1.76337 8.5 1.76172ZM8.5 14.6367C7.46688 13.8242 4 10.8398 4 7.26172C4 6.06824 4.47411 4.92365 5.31802 4.07974C6.16193 3.23582 7.30653 2.76172 8.5 2.76172C9.69347 2.76172 10.8381 3.23582 11.682 4.07974C12.5259 4.92365 13 6.06824 13 7.26172C13 10.8386 9.53312 13.8242 8.5 14.6367Z" fill="#525866"/>
</svg>
