<svg width="17" height="17" viewBox="0 0 17 17" fill="none" xmlns="http://www.w3.org/2000/svg">
<path d="M8.5 2.26172C7.21442 2.26172 5.95772 2.64294 4.8888 3.35717C3.81988 4.0714 2.98676 5.08656 2.49479 6.27428C2.00282 7.462 1.87409 8.76893 2.1249 10.0298C2.3757 11.2907 2.99477 12.4489 3.90381 13.3579C4.81285 14.267 5.97104 14.886 7.23192 15.1368C8.49279 15.3876 9.79973 15.2589 10.9874 14.7669C12.1752 14.275 13.1903 13.4418 13.9046 12.3729C14.6188 11.304 15 10.0473 15 8.76172C14.9982 7.03837 14.3128 5.38613 13.0942 4.16753C11.8756 2.94894 10.2234 2.26354 8.5 2.26172ZM13.9769 8.26172H11.4875C11.3994 6.48297 10.8456 4.79484 9.9175 3.44922C11.0045 3.74105 11.9761 4.35862 12.7018 5.21893C13.4275 6.07925 13.8725 7.14107 13.9769 8.26172ZM8.5 14.2548C7.32938 12.988 6.61938 11.1923 6.51438 9.26172H10.4856C10.3806 11.1911 9.67063 12.988 8.5 14.2548ZM6.51438 8.26172C6.61938 6.33234 7.32688 4.53547 8.5 3.26859C9.67063 4.53547 10.3806 6.33109 10.4856 8.26172H6.51438ZM7.0825 3.44922C6.15438 4.79484 5.60063 6.48297 5.5125 8.26172H3.02313C3.12756 7.14107 3.57251 6.07925 4.29819 5.21893C5.02387 4.35862 5.9955 3.74105 7.0825 3.44922ZM3.02313 9.26172H5.5125C5.60063 11.0405 6.15438 12.7286 7.0825 14.0742C5.9955 13.7824 5.02387 13.1648 4.29819 12.3045C3.57251 11.4442 3.12756 10.3824 3.02313 9.26172ZM9.9175 14.0742C10.8456 12.7267 11.3994 11.0386 11.4875 9.26172H13.9769C13.8725 10.3824 13.4275 11.4442 12.7018 12.3045C11.9761 13.1648 11.0045 13.7824 9.9175 14.0742Z" fill="#525866"/>
</svg>
